<?xml version="1.0" encoding="UTF-8"?>
<svg version="1.1" xmlns="http://www.w3.org/2000/svg" width="1024" height="607">
<path d="M0 0 C5.37118776 4.47981543 9.93392994 9.12912782 13.77636719 14.99194336 C14.73341639 16.26374404 15.69170456 17.53461353 16.65136719 18.80444336 C18.77636719 21.99194336 18.77636719 21.99194336 18.77636719 24.99194336 C19.43636719 24.99194336 20.09636719 24.99194336 20.77636719 24.99194336 C22.08148655 26.87911595 23.29418563 28.8304621 24.46386719 30.80444336 C25.18447473 32.0067141 25.90584134 33.20853016 26.62792969 34.40991211 C27.16981934 35.31749268 27.16981934 35.31749268 27.72265625 36.2434082 C29.7735008 39.64659371 31.93211153 42.98115861 34.07324219 46.32788086 C35.19316518 48.07968701 36.30790905 49.83481689 37.41699219 51.59350586 C40.69067238 56.77938243 44.04396424 61.90205834 47.46386719 66.99194336 C51.92170861 73.63093369 56.19942619 80.37464878 60.45043945 87.14746094 C63.80900067 92.48897651 67.2650429 97.75200361 70.79199219 102.98413086 C73.58674833 107.22027698 76.24706485 111.53662088 78.91870117 115.85107422 C81.83984013 120.54781841 84.86850659 125.15854219 87.96386719 129.74194336 C107.89292316 159.36996052 107.89292316 159.36996052 106.77636719 172.99194336 C104.29638675 182.13500375 98.94683999 189.53053753 91.00683594 194.78881836 C81.73225527 199.7915694 71.33950199 202.88665507 61.40600586 206.3112793 C55.68682558 208.29193836 50.03275409 210.39958099 44.40136719 212.61694336 C26.86192289 219.49444725 10.61528521 224.61453307 -8.41113281 224.49194336 C-9.1315274 224.49051331 -9.851922 224.48908325 -10.59414673 224.48760986 C-22.3988258 224.42977182 -33.13635858 223.21235051 -44.22363281 218.99194336 C-44.86236328 218.76200684 -45.50109375 218.53207031 -46.15917969 218.29516602 C-56.86410603 214.39267352 -66.63034724 208.48193187 -75.22363281 200.99194336 C-75.22363281 200.33194336 -75.22363281 199.67194336 -75.22363281 198.99194336 C-76.21363281 198.66194336 -77.20363281 198.33194336 -78.22363281 197.99194336 C-80.04785156 195.99584961 -80.04785156 195.99584961 -81.91113281 193.55444336 C-82.53375 192.75135742 -83.15636719 191.94827148 -83.79785156 191.12084961 C-85.22363281 188.99194336 -85.22363281 188.99194336 -85.22363281 186.99194336 C-71.39041962 181.38120406 -57.47638733 176.03868375 -43.47363281 170.86694336 C-40.71448868 169.84509217 -37.95561445 168.82251499 -35.19677734 167.79983521 C-33.40827609 167.13715033 -31.61954327 166.47509004 -29.83056641 165.81369019 C-25.73642671 164.29926745 -21.64554258 162.77741617 -17.56347656 161.23071289 C-16.84029236 160.95711945 -16.11710815 160.683526 -15.37200928 160.40164185 C-13.45095834 159.67349563 -11.53109223 158.94222559 -9.61132812 158.21069336 C-4.88818762 156.51150646 -0.10055341 155.16984367 4.77636719 153.99194336 C1.29199812 149.8978097 -2.23787623 145.92391209 -6.09863281 142.17944336 C-18.1101124 130.33250458 -18.1101124 130.33250458 -20.22363281 123.99194336 C-20.88363281 123.99194336 -21.54363281 123.99194336 -22.22363281 123.99194336 C-23.46044922 122.55493164 -23.46044922 122.55493164 -24.82519531 120.56225586 C-25.31503906 119.8494043 -25.80488281 119.13655273 -26.30957031 118.40209961 C-26.81746094 117.64799805 -27.32535156 116.89389648 -27.84863281 116.11694336 C-28.36425781 115.37057617 -28.87988281 114.62420898 -29.41113281 113.85522461 C-33.22363281 108.25750636 -33.22363281 108.25750636 -33.22363281 105.99194336 C-33.88363281 105.99194336 -34.54363281 105.99194336 -35.22363281 105.99194336 C-35.51496094 105.45827148 -35.80628906 104.92459961 -36.10644531 104.37475586 C-41.31752193 94.07127337 -41.31752193 94.07127337 -48.22363281 84.99194336 C-48.98907167 83.18170841 -49.69068132 81.34395498 -50.34863281 79.49194336 C-50.8784375 78.02241211 -50.8784375 78.02241211 -51.41894531 76.52319336 C-52.22363281 73.99194336 -52.22363281 73.99194336 -52.22363281 71.99194336 C-58.55909186 74.31953592 -64.89224106 76.65331034 -71.22363281 78.99194336 C-71.97499512 79.2690918 -72.72635742 79.54624023 -73.50048828 79.83178711 C-80.25375362 82.32644612 -86.97496518 84.85278265 -93.59863281 87.67944336 C-97.92788554 89.51805409 -102.23314945 90.99799146 -106.77441406 92.21850586 C-109.40881346 93.00554253 -109.40881346 93.00554253 -112.56738281 94.42944336 C-116.14262565 95.95732491 -119.70896612 97.18447211 -123.41113281 98.36694336 C-129.22947142 100.25416722 -134.82862236 102.4519154 -140.45019531 104.87084961 C-143.86875809 106.25271935 -147.33606054 107.24995295 -150.87988281 108.25366211 C-153.16439684 108.97328403 -155.24375606 109.85199641 -157.41113281 110.86694336 C-163.78898191 113.83713301 -170.53628323 115.84212347 -177.22363281 117.99194336 C-177.32904207 120.20276187 -177.32904207 120.20276187 -176.22363281 122.99194336 C-175.23363281 123.32194336 -174.24363281 123.65194336 -173.22363281 123.99194336 C-171.39941406 125.98803711 -171.39941406 125.98803711 -169.53613281 128.42944336 C-168.91351563 129.2325293 -168.29089844 130.03561523 -167.64941406 130.86303711 C-166.22363281 132.99194336 -166.22363281 132.99194336 -166.22363281 134.99194336 C-165.56363281 134.99194336 -164.90363281 134.99194336 -164.22363281 134.99194336 C-161.22363281 139.37655874 -161.22363281 139.37655874 -161.22363281 141.99194336 C-160.56363281 141.99194336 -159.90363281 141.99194336 -159.22363281 141.99194336 C-157.67285156 144.33569336 -157.67285156 144.33569336 -155.91113281 147.49194336 C-153.14378461 152.41720129 -150.24112525 157.21828257 -147.22363281 161.99194336 C-146.3380719 163.4033112 -145.45265837 164.81477152 -144.56738281 166.22631836 C-138.90548345 175.22519219 -133.17590822 184.17562513 -127.36669922 193.08007812 C-122.90682295 199.9229081 -118.49660815 206.79669228 -114.09863281 213.67944336 C-107.84049408 223.47227843 -101.54979704 233.24295045 -95.22363281 242.99194336 C-88.19776261 253.81922453 -81.2224398 264.67769471 -74.2722168 275.55371094 C-70.07598091 282.11433095 -65.85231505 288.65595012 -61.59863281 295.17944336 C-56.95556542 302.3136476 -52.3229581 309.45444612 -47.72363281 316.61694336 C-47.14790527 317.50534912 -46.57217773 318.39375488 -45.97900391 319.30908203 C-38.10101559 331.62147722 -32.6213667 342.96372414 -32.78613281 357.80444336 C-32.79749268 359.24847534 -32.79749268 359.24847534 -32.80908203 360.72167969 C-33.1970446 377.55840553 -40.5797762 391.95219563 -52.22363281 403.99194336 C-52.88363281 403.99194336 -53.54363281 403.99194336 -54.22363281 403.99194336 C-54.55363281 404.98194336 -54.88363281 405.97194336 -55.22363281 406.99194336 C-57.21071631 408.67424112 -59.1638637 410.18580371 -61.28613281 411.67944336 C-61.90157959 412.11426025 -62.51702637 412.54907715 -63.15112305 412.99707031 C-67.85689005 416.2315846 -72.70940248 419.0688399 -77.78613281 421.67944336 C-78.45201416 422.03031006 -79.11789551 422.38117676 -79.80395508 422.74267578 C-82.53074229 424.08720787 -84.65967661 425.01838224 -87.72851562 424.87451172 C-91.08065182 423.68880014 -91.8364503 422.20406896 -93.64160156 419.17163086 C-94.25092529 418.16898193 -94.86024902 417.16633301 -95.48803711 416.13330078 C-96.12265869 415.05540283 -96.75728027 413.97750488 -97.41113281 412.86694336 C-98.75315569 410.65105268 -100.09690332 408.43620565 -101.44238281 406.22241211 C-102.09207031 405.14523926 -102.74175781 404.06806641 -103.41113281 402.95825195 C-105.64856811 399.29650103 -107.99576585 395.72535433 -110.41113281 392.17944336 C-114.05998144 386.78611625 -117.57324656 381.31899603 -121.03613281 375.80444336 C-125.1279633 369.28908593 -129.26913171 362.81018803 -133.47363281 356.36694336 C-138.47250666 348.70508965 -143.42268553 341.01338547 -148.34863281 333.30444336 C-155.61661709 321.93238764 -162.92336639 310.58684098 -170.29394531 299.28100586 C-171.37481749 297.62224487 -172.45554407 295.963389 -173.53613281 294.30444336 C-174.07850586 293.47187012 -174.62087891 292.63929688 -175.1796875 291.78149414 C-179.21927299 285.56775197 -183.19675188 279.31635067 -187.16113281 273.05444336 C-191.9115603 265.56072705 -196.73964003 258.12451333 -201.66113281 250.74194336 C-202.49342407 249.49296265 -202.49342407 249.49296265 -203.3425293 248.21875 C-205.58485142 244.87023806 -207.8311311 241.53608238 -210.18896484 238.26733398 C-210.83075684 237.37723633 -211.47254883 236.48713867 -212.13378906 235.57006836 C-212.72426025 234.76472656 -213.31473145 233.95938477 -213.9230957 233.12963867 C-215.22363281 230.99194336 -215.22363281 230.99194336 -215.22363281 227.99194336 C-215.88363281 227.99194336 -216.54363281 227.99194336 -217.22363281 227.99194336 C-218.46816689 226.21055144 -219.61629546 224.36170971 -220.72363281 222.49194336 C-221.44041311 221.29753204 -222.15789346 220.10354063 -222.87597656 218.90991211 C-223.25608887 218.27359863 -223.63620117 217.63728516 -224.02783203 216.98168945 C-226.07947667 213.5678667 -228.17971646 210.18466552 -230.28613281 206.80444336 C-230.70693115 206.12736328 -231.12772949 205.4502832 -231.5612793 204.75268555 C-234.51299422 200.03682614 -237.62697267 195.47497772 -240.94628906 191.00756836 C-242.2332402 188.97678308 -242.79475724 187.34281688 -243.22363281 184.99194336 C-243.88363281 184.99194336 -244.54363281 184.99194336 -245.22363281 184.99194336 C-246.36033036 183.24640781 -247.4067567 181.4418281 -248.41113281 179.61694336 C-251.20741242 174.6710238 -254.19575366 170.025296 -257.54785156 165.44116211 C-259.2299973 162.98264142 -260.68688089 160.44107561 -262.14575195 157.84570312 C-263.98880581 154.67598445 -266.04719905 151.65429477 -268.09863281 148.61694336 C-268.7529126 147.63902832 -268.7529126 147.63902832 -269.42041016 146.64135742 C-271.33049961 143.78859886 -273.2541683 140.94782319 -275.20800781 138.12475586 C-275.74941406 137.33842773 -276.29082031 136.55209961 -276.84863281 135.74194336 C-277.31527344 135.07678711 -277.78191406 134.41163086 -278.26269531 133.72631836 C-279.22363281 131.99194336 -279.22363281 131.99194336 -279.22363281 128.99194336 C-279.88363281 128.99194336 -280.54363281 128.99194336 -281.22363281 128.99194336 C-289.13247617 115.36273111 -294.24487958 102.28351139 -290.30957031 86.27319336 C-287.91007551 79.152112 -284.90202763 71.94626404 -280.22363281 65.99194336 C-279.56363281 65.99194336 -278.90363281 65.99194336 -278.22363281 65.99194336 C-277.96582031 65.41057617 -277.70800781 64.82920898 -277.44238281 64.23022461 C-271.63472929 53.56424555 -259.36890807 47.01219015 -248.39941406 43.13256836 C-244.93970342 41.88996626 -241.60162962 40.44122476 -238.22363281 38.99194336 C-234.89309341 37.6994577 -231.53739727 36.47516707 -228.18457031 35.24194336 C-225.09659859 34.09736697 -222.06563946 32.92209162 -219.05175781 31.58959961 C-212.35243099 28.67147626 -205.30585945 26.55289014 -198.38769531 24.22045898 C-197.25589844 23.83438477 -196.12410156 23.44831055 -194.95800781 23.05053711 C-193.92901367 22.7030542 -192.90001953 22.35557129 -191.83984375 21.99755859 C-189.05139914 21.03546069 -189.05139914 21.03546069 -186.22363281 18.99194336 C-182.92338366 17.90320137 -179.59389646 16.95454189 -176.25488281 15.99194336 C-173.09560185 15.0987749 -173.09560185 15.0987749 -170.22363281 12.99194336 C-168.6545474 12.4680005 -167.0687335 11.99284836 -165.47363281 11.55444336 C-162.42281165 10.67711184 -159.65208996 9.74699642 -156.72363281 8.49194336 C-153.88201395 7.2741067 -151.24611428 6.38792368 -148.28613281 5.55444336 C-145.12868355 4.64555242 -142.35235264 3.63249962 -139.47363281 2.05444336 C-134.77122388 -0.45414396 -129.73686254 -1.61254353 -124.61816406 -3.00805664 C-121.01599906 -4.06922378 -117.73812575 -5.41300114 -114.34863281 -7.00805664 C-106.24420749 -10.82190385 -97.8125985 -13.51592152 -89.22363281 -16.00805664 C-88.53785156 -16.21430664 -87.85207031 -16.42055664 -87.14550781 -16.63305664 C-58.12598346 -24.70805472 -23.69873299 -19.01541195 0 0 Z " fill="#DB4AAB" transform="translate(303.2236328125,168.008056640625)"/>
<path d="M0 0 C1.65649414 1.95507813 1.65649414 1.95507813 3.28515625 4.53125 C3.89222412 5.47790527 4.49929199 6.42456055 5.12475586 7.39990234 C5.76421143 8.42293457 6.40366699 9.4459668 7.0625 10.5 C7.73224854 11.55010254 8.40199707 12.60020508 9.09204102 13.68212891 C10.44645205 15.80634576 11.7963531 17.93344533 13.14160156 20.06347656 C15.12647524 23.19984816 17.14109987 26.3152623 19.16723633 29.42504883 C24.81910039 38.10108925 30.3766388 46.83821637 35.95239258 55.56323242 C40.14825064 62.12338774 44.3709604 68.66494498 48.625 75.1875 C53.13028458 82.09564939 57.58117962 89.03623598 62 96 C68.09857954 105.61013877 74.28317312 115.16170846 80.49902344 124.69628906 C82.7753515 128.19001574 85.04577588 131.68753576 87.3125 135.1875 C87.7465918 135.85765137 88.18068359 136.52780273 88.62792969 137.21826172 C91.37345705 141.46429742 94.10125262 145.72133982 96.8203125 149.984375 C103.4295212 160.34518385 110.06371085 170.67932598 116.91162109 180.88427734 C120.96329543 186.9249807 124.90375189 193.02982566 128.81982422 199.15917969 C131.07517402 202.67704015 133.35193596 206.1810711 135.625 209.6875 C138.70820669 214.44546297 141.77813377 219.21065816 144.8125 224 C147.31040746 227.93969252 149.87640849 231.8265026 152.4765625 235.69921875 C154.1432912 238.21640645 155.76152259 240.76086943 157.375 243.3125 C161.69295048 250.12780816 166.17860152 256.82951903 170.69921875 263.51171875 C173.25958641 267.31034987 175.64761536 271.11139004 177.87109375 275.12109375 C179.8009513 278.3330712 182.02306749 281.34096599 184.21875 284.375 C185.94246653 286.91521384 187.47689288 289.52054393 188.97802734 292.19726562 C189.96427134 293.93697554 190.99895626 295.64894891 192.03515625 297.359375 C199.55535178 309.93650355 203.23449747 321.56150103 200.34375 336.359375 C195.52683732 353.71687069 184.31337645 366.7443603 169.2734375 376.2578125 C163.11148436 379.53732455 156.58114053 381.7198123 150 384 C148.20294099 384.69453902 146.41030167 385.40077385 144.625 386.125 C143.85414063 386.43695313 143.08328125 386.74890625 142.2890625 387.0703125 C141.53367187 387.37710937 140.77828125 387.68390625 140 388 C137.50098349 389.00118327 135.00090569 389.99963914 132.5 390.99609375 C130.82970715 391.66682072 129.16300854 392.34656678 127.5 393.03515625 C122.56832605 395.06176601 117.6630766 396.78065531 112.51953125 398.19140625 C109.93058456 399.02227751 107.48980588 400.07838768 105.0012207 401.16821289 C101.13175694 402.7765163 97.15049689 404.08069756 93.1875 405.4375 C87.20257817 407.50741608 81.26788707 409.61893008 75.4140625 412.0390625 C72.30441935 413.27688162 69.15569224 414.38503379 66 415.5 C61.96521586 416.9260875 57.96239244 418.38376098 54 420 C48.88854512 422.08338177 43.69776219 423.9205341 38.4921875 425.75390625 C35.35974172 426.87163578 32.24527304 428.02609254 29.13330078 429.19897461 C24.45373707 430.95608705 19.75804849 432.66999502 15.06640625 434.39453125 C14.27105469 434.68714844 13.47570312 434.97976563 12.65625 435.28125 C11.48255859 435.71171631 11.48255859 435.71171631 10.28515625 436.15087891 C8.80956576 436.69918059 7.33783306 437.25803248 5.87109375 437.82958984 C1.62437356 439.47938745 -2.52353582 440.69918582 -7 441.625 C-8.134375 441.86476563 -9.26875 442.10453125 -10.4375 442.3515625 C-35.9008963 446.98634735 -62.21637203 442.97379449 -83.91308594 428.26025391 C-94.5266304 420.7221256 -101.77265703 411.8899825 -108.6875 400.9375 C-109.78988218 399.21141115 -110.89512442 397.48718394 -112.00100708 395.76333618 C-113.04863461 394.1297379 -114.09344493 392.49433403 -115.13818359 390.85888672 C-116.63050018 388.5673804 -118.15716542 386.33598204 -119.76953125 384.12890625 C-121.71852149 381.39485865 -123.37763399 378.67956195 -125.00390625 375.75439453 C-126.71575516 372.73935869 -128.61316382 369.84503083 -130.5 366.9375 C-130.87769531 366.35162109 -131.25539063 365.76574219 -131.64453125 365.16210938 C-133.87353673 361.70866298 -133.87353673 361.70866298 -136.171875 358.30126953 C-139 354.19725187 -139 354.19725187 -139 352 C-138.17761841 351.68361572 -138.17761841 351.68361572 -137.33862305 351.36083984 C-114.05610942 343.12498535 -114.05610942 343.12498535 -98.76171875 324.89453125 C-95.80539723 317.54162902 -96.86120515 311.2826189 -99.68359375 304.07421875 C-104.10620035 293.74605437 -109.4089732 284.49814791 -115.765625 275.27734375 C-121 267.59965035 -121 267.59965035 -121 265 C-121.66 265 -122.32 265 -123 265 C-127 258.25 -127 258.25 -127 256 C-127.66 256 -128.32 256 -129 256 C-129.27972656 255.47792969 -129.55945313 254.95585937 -129.84765625 254.41796875 C-132.87064768 248.8677176 -136.16452877 243.56081033 -139.64453125 238.28515625 C-141 236 -141 236 -141 234 C-141.66 234 -142.32 234 -143 234 C-144.69140625 231.515625 -144.69140625 231.515625 -146.5625 228.25 C-147.18253906 227.18265625 -147.80257813 226.1153125 -148.44140625 225.015625 C-149.72062147 222.54055194 -150.40739981 220.66652117 -151 218 C-103.0155304 199.58235334 -103.0155304 199.58235334 -81.75 199.6875 C-79.97556519 199.69487183 -79.97556519 199.69487183 -78.1652832 199.70239258 C-52.98894532 200.03835274 -29.83746378 208.4882751 -11.671875 226.10546875 C-5 233.33333333 -5 233.33333333 -5 238 C-6.86011719 238.67482422 -6.86011719 238.67482422 -8.7578125 239.36328125 C-13.66825949 241.14589571 -18.57730644 242.93233844 -23.48583984 244.72021484 C-25.90523254 245.60130811 -28.32484152 246.48180767 -30.74462891 247.36181641 C-49.66539322 254.224751 -49.66539322 254.224751 -68.39453125 261.58984375 C-74.03318912 263.79521265 -79.75410184 265.7607381 -85.47900391 267.72949219 C-86.29675293 268.01083008 -87.11450195 268.29216797 -87.95703125 268.58203125 C-88.68897705 268.83186768 -89.42092285 269.0817041 -90.17504883 269.33911133 C-92.06107117 269.98222845 -92.06107117 269.98222845 -94 271 C-93.566875 271.40992188 -93.13375 271.81984375 -92.6875 272.2421875 C-92.130625 272.78101563 -91.57375 273.31984375 -91 273.875 C-90.443125 274.40867187 -89.88625 274.94234375 -89.3125 275.4921875 C-88 277 -88 277 -88 279 C-87.34 279 -86.68 279 -86 279 C-84.51953125 280.46875 -84.51953125 280.46875 -82.8125 282.5 C-79.70077339 286.17392932 -76.51847245 289.7686304 -73.28515625 293.3359375 C-72 295 -72 295 -72 297 C-71.34 297 -70.68 297 -70 297 C-68.55473264 298.73548169 -67.1912778 300.53975963 -65.875 302.375 C-65.15054688 303.37273437 -64.42609375 304.37046875 -63.6796875 305.3984375 C-62 308 -62 308 -62 310 C-61.01 310.33 -60.02 310.66 -59 311 C-55.28711656 316.78773006 -55.28711656 316.78773006 -54.4375 320.375 C-54.2209375 321.179375 -54.2209375 321.179375 -54 322 C-53.01 322.33 -52.02 322.66 -51 323 C-49.640625 325.046875 -49.640625 325.046875 -48.25 327.75 C-47.73566406 328.73613281 -47.22132813 329.72226562 -46.69140625 330.73828125 C-45.85416016 332.35283203 -45.85416016 332.35283203 -45 334 C-43.14193349 337.38555677 -41.28020349 340.76907843 -39.41796875 344.15234375 C-38.24850053 346.50094521 -37.47485162 348.44073477 -37 351 C-29.99917283 349.30491783 -23.52400821 347.05430822 -16.91796875 344.19140625 C-14.21477593 343.08769298 -11.5588775 342.22467394 -8.75 341.4375 C-4.88891139 340.34926324 -1.59791059 338.84899088 1.93359375 336.97265625 C5.05120244 335.50519961 8.3037467 334.65129879 11.61328125 333.71875 C14.87912674 332.73525479 17.88153651 331.37932039 21 330 C24.72484688 328.61231195 26.97858538 328 31 328 C31 327.34 31 326.68 31 326 C31.98226562 325.76216797 31.98226562 325.76216797 32.984375 325.51953125 C39.25422821 323.91664505 45.07428332 321.82613639 51.01171875 319.26171875 C54.80225407 317.6612705 58.65655142 316.28688972 62.53125 314.90625 C64.66092507 314.12447054 66.73573073 313.28586372 68.8125 312.375 C73.392389 310.39936161 76.9800454 309 82 309 C82 308.34 82 307.68 82 307 C83.98 306.34 85.96 305.68 88 305 C87.43410156 304.39671875 86.86820313 303.7934375 86.28515625 303.171875 C85.55167969 302.37265625 84.81820312 301.5734375 84.0625 300.75 C83.33160156 299.96109375 82.60070312 299.1721875 81.84765625 298.359375 C80.08579457 296.10955586 79.40223397 294.78371446 79 292 C78.34 292 77.68 292 77 292 C74.90309272 289.7462179 73.17821005 287.17949968 71.375 284.6875 C70.859375 283.99720703 70.34375 283.30691406 69.8125 282.59570312 C69.32523438 281.92861328 68.83796875 281.26152344 68.3359375 280.57421875 C67.88782715 279.96151123 67.4397168 279.34880371 66.97802734 278.7175293 C66 277 66 277 66 274 C65.34 274 64.68 274 64 274 C63.566875 272.7934375 63.566875 272.7934375 63.125 271.5625 C62.26737432 268.8673532 62.26737432 268.8673532 60 268 C59.28288806 266.33024376 58.57014442 264.65841742 57.88427734 262.97558594 C56.38644664 259.62924523 54.34368349 256.66728974 52.3125 253.625 C51.32595362 252.12426901 50.34033481 250.62292799 49.35546875 249.12109375 C48.81970215 248.30624512 48.28393555 247.49139648 47.73193359 246.65185547 C44.49057359 241.68883709 41.31310405 236.68482171 38.125 231.6875 C33.28006458 224.10516184 28.4143719 216.53752164 23.5 209 C18.58562384 201.46247184 13.72062113 193.89440501 8.875 186.3125 C1.60691451 174.94050793 -5.69973283 163.59489878 -13.0703125 152.2890625 C-19.40330133 142.57071931 -25.68464217 132.82246107 -31.8918457 123.02319336 C-35.08043932 117.9941494 -38.30852574 112.99573175 -41.58740234 108.02514648 C-53.10150397 90.4992749 -59.76945476 74.38816129 -55.9375 53.0625 C-51.29063059 33.61048852 -38.21197443 18.29138322 -21.5625 7.75 C-5.00889081 -2.01389006 -5.00889081 -2.01389006 0 0 Z " fill="#A844BA" transform="translate(510,22)"/>
<path d="M0 0 C2.1740494 2.56267691 3.80597944 5.41800362 5.5 8.3125 C6.56356912 10.06343335 7.62872424 11.81340413 8.6953125 13.5625 C9.2409082 14.46613281 9.78650391 15.36976562 10.34863281 16.30078125 C12.93570512 20.5294435 15.65475118 24.66875922 18.375 28.8125 C22.96655019 35.84382798 27.50146083 42.90882929 32 50 C36.93854897 57.78310967 41.92916094 65.52944454 46.96484375 73.25 C51.3470414 79.97640941 55.67856306 86.73442535 60 93.5 C66.46134402 103.61391059 72.97942762 113.68916936 79.53125 123.74462891 C85.04176529 132.20642084 90.52457841 140.68566728 95.9609375 149.1953125 C96.65920654 150.2881958 97.35747559 151.3810791 98.0769043 152.50708008 C99.44150883 154.64419757 100.80502782 156.78200877 102.16723633 158.9206543 C109.88275785 171.53309751 109.88275785 171.53309751 118.75 183.3125 C120.81649588 185.78081453 122.29120097 188.25355442 123.85839844 191.04956055 C126.22457299 195.0921971 128.96429281 198.90450456 131.640625 202.74609375 C135 207.67517671 135 207.67517671 135 211 C135.66 211 136.32 211 137 211 C138.3671875 212.72265625 138.3671875 212.72265625 139.875 215.0625 C140.67744141 216.30386719 140.67744141 216.30386719 141.49609375 217.5703125 C143.02954243 220.0477283 144.45825429 222.57325355 145.87109375 225.12109375 C147.8009513 228.3330712 150.02306749 231.34096599 152.21875 234.375 C153.91765775 236.87865352 155.41154705 239.44958914 156.89306641 242.0859375 C158.9470522 245.63760239 161.20138266 249.06123909 163.4375 252.5 C164.13456055 253.58087891 164.13456055 253.58087891 164.84570312 254.68359375 C167.0912136 258.14737979 169.38005603 261.53391497 171.84765625 264.84375 C174 268 174 268 174 271 C174.66 271 175.32 271 176 271 C177.3245153 272.93009324 178.5589053 274.92233397 179.75 276.9375 C180.4619476 278.13246159 181.17550085 279.32646795 181.890625 280.51953125 C182.24447266 281.11072754 182.59832031 281.70192383 182.96289062 282.31103516 C184.83530359 285.36031786 186.89902135 288.27787584 188.96875 291.1953125 C190 293 190 293 190 296 C190.66 296 191.32 296 192 296 C199.95869108 310.95978565 203.87933258 324.03568166 199.03125 341.09375 C192.87842228 358.43353721 178.71705608 371.18913832 162.47973633 379.1105957 C151.73987476 384.12337098 140.4970078 388.10136377 129.1015625 391.33203125 C126.13351055 392.27540836 123.37591348 393.58431776 120.5546875 394.89453125 C116.26638287 396.75017377 111.84376793 398.22749522 107.4296875 399.75390625 C105.11643856 400.59436913 102.82740556 401.50425563 100.56640625 402.4765625 C96.77743486 404.09507164 92.9553941 405.47125077 89.0625 406.8125 C83.34670159 408.80429351 77.65963824 410.85382454 72 413 C65.65077627 415.40767123 59.26578847 417.69624095 52.84570312 419.90820312 C49.60936636 421.03320042 46.43624128 422.21518505 43.296875 423.58984375 C40.6213223 424.73424485 38.11141404 425.62276132 35.3125 426.375 C31.60894045 427.45058466 28.10858946 428.73449249 24.5625 430.25 C-7.31987999 443.72142817 -38.34953865 448.30012557 -71.37890625 435.07421875 C-87.72573145 428.05292306 -100.0095606 416.22501546 -109 401 C-110.05182692 399.4095564 -111.11383189 397.82578155 -112.1875 396.25 C-114.64702741 392.58687407 -116.85119372 388.85303195 -119 385 C-119.99477045 383.33020674 -120.99260254 381.66220581 -122 380 C-121.54109375 379.55269531 -121.0821875 379.10539062 -120.609375 378.64453125 C-117.796016 375.87254517 -115.13462156 373.17100576 -112.6875 370.0625 C-112.130625 369.381875 -111.57375 368.70125 -111 368 C-110.34 368 -109.68 368 -109 368 C-108.7525 367.33355469 -108.505 366.66710937 -108.25 365.98046875 C-107.00532525 363.0126974 -105.57803478 360.22351808 -104.08007812 357.37915039 C-100.59365476 350.70813462 -97.63396918 344.60763011 -97 337 C-96.86271484 335.97132813 -96.86271484 335.97132813 -96.72265625 334.921875 C-95.86308342 323.60067192 -101.95930182 312.12382589 -108 303 C-109.47384185 300.67620833 -110.92449702 298.3384022 -112.375 296 C-113.40753906 294.3603125 -113.40753906 294.3603125 -114.4609375 292.6875 C-116 290 -116 290 -116 288 C-116.66 288 -117.32 288 -118 288 C-119.5078125 285.8828125 -119.5078125 285.8828125 -121.125 283.125 C-121.93324219 281.76761719 -121.93324219 281.76761719 -122.7578125 280.3828125 C-124 278 -124 278 -124 276 C-124.66 276 -125.32 276 -126 276 C-126.25652344 275.51273437 -126.51304687 275.02546875 -126.77734375 274.5234375 C-132.24947168 264.38986726 -138.65338847 254.83056557 -145.3046875 245.44140625 C-149.62605863 239.21823355 -153.83154448 232.89605024 -157 226 C-152.28500687 227.36337151 -148.60100672 229.31709841 -144.5 232 C-143.89687988 232.39445313 -143.29375977 232.78890625 -142.67236328 233.1953125 C-136.57310358 237.21826212 -130.61528207 241.4354024 -124.71679688 245.74609375 C-123.55371406 246.59558086 -122.38826977 247.44184247 -121.22070312 248.28515625 C-119.51688619 249.51642285 -117.81996473 250.75658566 -116.125 252 C-115.13757813 252.721875 -114.15015625 253.44375 -113.1328125 254.1875 C-112.07707031 255.0846875 -112.07707031 255.0846875 -111 256 C-111 256.66 -111 257.32 -111 258 C-110.4225 258.268125 -109.845 258.53625 -109.25 258.8125 C-106.94449957 260.02929189 -104.97943808 261.30333879 -103 263 C-103 263.66 -103 264.32 -103 265 C-102.34 265 -101.68 265 -101 265 C-101 265.66 -101 266.32 -101 267 C-100.40832031 267.27585937 -99.81664062 267.55171875 -99.20703125 267.8359375 C-93.29070605 270.95640637 -88.91268381 276.06654372 -84.64453125 281.10546875 C-83.18297542 282.78920884 -81.67356734 284.33654415 -80.0625 285.875 C-78 288 -78 288 -78 290 C-77.34 290 -76.68 290 -76 290 C-73 293.46153846 -73 293.46153846 -73 296 C-72.34 296 -71.68 296 -71 296 C-69.55473264 297.73548169 -68.1912778 299.53975963 -66.875 301.375 C-66.15054688 302.37273437 -65.42609375 303.37046875 -64.6796875 304.3984375 C-63 307 -63 307 -63 309 C-62.34 309 -61.68 309 -61 309 C-60.0234375 310.79036458 -59.046875 312.58072917 -58.0703125 314.37109375 C-57.08589976 316.16618315 -57.08589976 316.16618315 -55 317 C-55 318.32 -55 319.64 -55 321 C-54.34 321 -53.68 321 -53 321 C-51.59765625 323.01171875 -51.59765625 323.01171875 -50.0625 325.6875 C-49.55847656 326.55761719 -49.05445313 327.42773438 -48.53515625 328.32421875 C-48.02855469 329.20722656 -47.52195312 330.09023438 -47 331 C-46.47148438 331.86625 -45.94296875 332.7325 -45.3984375 333.625 C-43.97853172 336.03646009 -42.89767017 338.5030997 -41.828125 341.0859375 C-40.36654169 344.46412534 -38.66868797 347.72016501 -37 351 C-32.11758057 349.62876731 -27.31362064 348.19242855 -22.625 346.25 C-16.55917958 343.74033947 -10.34602263 341.65651345 -4.13134766 339.54980469 C0.44645443 337.97748699 4.67188346 336.18260734 9 334 C10.81845425 333.4483341 12.65275959 332.94588562 14.5 332.5 C18.67938954 331.41999624 22.15046725 329.96571885 26 328 C27.61788391 327.49732979 29.2438802 327.02040161 30.875 326.5625 C34.12626776 325.63564606 37.01665627 324.58829838 40 323 C43.66027648 321.06005347 47.31905317 319.96413078 51.296875 318.84765625 C54.29179311 317.9084984 57.11642184 316.73845985 60 315.5 C64.46205935 313.58850399 68.87481249 312.07002444 73.54296875 310.7578125 C77.08598969 309.66505247 80.465509 308.22906757 83.87109375 306.76953125 C86 306 86 306 89 306 C88.566875 305.51789063 88.13375 305.03578125 87.6875 304.5390625 C86.8521875 303.59160156 86.8521875 303.59160156 86 302.625 C85.443125 301.99851562 84.88625 301.37203125 84.3125 300.7265625 C83 299 83 299 83 297 C82.01 296.67 81.02 296.34 80 296 C77.95703125 293.56640625 77.95703125 293.56640625 75.8125 290.5625 C75.09707031 289.57378906 74.38164063 288.58507812 73.64453125 287.56640625 C72 285 72 285 72 283 C71.34 283 70.68 283 70 283 C69.401875 281.865625 68.80375 280.73125 68.1875 279.5625 C64.83907453 273.54463533 61.05358428 267.82688873 57.29296875 262.0625 C53.49098686 256.23240389 49.74680889 250.36564521 46 244.5 C39.69967638 234.64504205 33.36702377 224.81195988 27 215 C20.67383539 205.25100649 14.38322603 195.48027967 8.125 185.6875 C2.76468372 177.30017419 -2.62929317 168.93641146 -8.06591797 160.59838867 C-13.10342192 152.86271904 -18.07283583 145.08402312 -23.04101562 137.30371094 C-27.32721359 130.59694997 -31.64988421 123.91543801 -36 117.25 C-49.57969384 96.3804796 -61.01817382 78.03146438 -56.3125 52.23046875 C-55.38771006 49.04379675 -54.29393715 46.05434068 -53 43 C-52.59910156 41.99839844 -52.19820312 40.99679688 -51.78515625 39.96484375 C-48.01491475 31.49546068 -42.51069817 25.42851544 -36 19 C-35.25621094 18.2575 -34.51242187 17.515 -33.74609375 16.75 C-26.81814617 10.21757061 -10.2246221 -4.37318174 0 0 Z " fill="#893CC2" transform="translate(812,14)"/>
</svg>
